<svg height="512pt" viewBox="-5 0 512 512.00069" width="512pt" xmlns="http://www.w3.org/2000/svg" xmlns:xlink="http://www.w3.org/1999/xlink"><linearGradient id="a" gradientTransform="matrix(.367636 0 0 -.367636 -4.40091 502.9141)" gradientUnits="userSpaceOnUse" x1="75.6761" x2="1157.9301" y1="45.5992" y2="1127.8292"><stop offset="0" stop-color="#41dfd0"/><stop offset="1" stop-color="#ee83ef"/></linearGradient><path d="m145.21875 327.507812c4.359375 2.183594 6.125 7.484376 3.945312 11.84375v.003907l-8.828124 17.65625c-2.144532 4.375-7.433594 6.1875-11.8125 4.042969-4.375-2.148438-6.1875-7.433594-4.042969-11.8125.023437-.042969.042969-.082032.0625-.125l8.828125-17.652344c2.175781-4.363282 7.476562-6.136719 11.839844-3.960938.003906.003906.003906.003906.007812.003906zm-70.621094 0c-4.359375-2.179687-9.664062-.410156-11.84375 3.949219 0 .003907 0 .003907-.003906.007813l-8.824219 17.652344c-2.214843 4.347656-.488281 9.660156 3.855469 11.875 4.347656 2.210937 9.660156.484374 11.875-3.859376.019531-.039062.039062-.082031.058594-.121093l8.828125-17.65625c2.183593-4.359375.417969-9.664063-3.941407-11.84375 0 0-.003906-.003907-.003906-.003907zm32.289063 56.921876-8.824219 17.652343c-2.214844 4.34375-.488281 9.660157 3.859375 11.875 4.34375 2.210938 9.65625.484375 11.871094-3.859375.019531-.039062.039062-.082031.058593-.121094l8.828126-17.65625c2.214843-4.34375.488281-9.660156-3.855469-11.871093-4.34375-2.214844-9.660157-.488281-11.875 3.855469-.019531.042968-.039063.082031-.0625.125zm-70.617188 0-8.828125 17.652343c-2.214844 4.34375-.484375 9.660157 3.859375 11.875 4.34375 2.210938 9.660157.484375 11.871094-3.859375.019531-.039062.042969-.082031.0625-.121094l8.828125-17.65625c2.210938-4.34375.484375-9.660156-3.859375-11.871093-4.34375-2.214844-9.660156-.488281-11.871094 3.855469-.023437.042968-.042969.082031-.0625.125zm39.265625 82.554687c4.359375 2.175781 9.660156.402344 11.835938-3.957031l8.828125-17.652344c2.210937-4.34375.484375-9.660156-3.859375-11.875-4.34375-2.210938-9.660156-.484375-11.871094 3.859375-.023438.039063-.042969.082031-.0625.121094l-8.828125 17.65625c-2.179687 4.359375-.410156 9.664062 3.949219 11.84375 0 0 .003906 0 .007812.003906zm-70.621094 0c4.371094 2.160156 9.664063.371094 11.828126-3.996094v-.003906l8.828124-17.65625c2.210938-4.34375.484376-9.660156-3.859374-11.871094-4.34375-2.214843-9.660157-.488281-11.871094 3.859375-.023438.039063-.042969.078125-.0625.121094l-8.828125 17.65625c-2.195313 4.351562-.449219 9.660156 3.902343 11.855469.019532.011719.039063.023437.0625.035156zm437.417969-135.476563-8.828125 17.65625c-2.210937 4.34375-.484375 9.660157 3.859375 11.871094 4.34375 2.214844 9.660157.484375 11.875-3.859375.019531-.039062.039063-.082031.058594-.121093l8.828125-17.65625c2.210938-4.34375.484375-9.660157-3.859375-11.871094-4.34375-2.210938-9.660156-.484375-11.871094 3.859375-.023437.039062-.042969.082031-.0625.121093zm-58.773437-4c-4.359375-2.179687-9.664063-.410156-11.84375 3.949219 0 .003907 0 .003907-.003906.007813l-8.824219 17.652344c-2.214844 4.347656-.488281 9.660156 3.859375 11.875 4.34375 2.210937 9.660156.484374 11.871094-3.859376.019531-.042968.039062-.082031.0625-.121093l8.824218-17.65625c2.183594-4.359375.417969-9.664063-3.941406-11.84375 0 0-.003906-.003907-.003906-.003907zm32.292968 56.921876-8.828124 17.652343c-2.214844 4.347657-.484376 9.660157 3.859374 11.875 4.34375 2.210938 9.660157.484375 11.871094-3.859375.019532-.042968.042969-.082031.0625-.121094l8.824219-17.65625c2.214844-4.34375.488281-9.660156-3.859375-11.871093-4.34375-2.214844-9.65625-.484375-11.871094 3.859375-.019531.039062-.039062.078125-.058594.121094zm-70.621093 0-8.828125 17.652343c-2.210938 4.347657-.484375 9.660157 3.859375 11.875 4.34375 2.210938 9.660156.484375 11.875-3.859375.019531-.042968.039062-.082031.058593-.121094l8.828126-17.65625c2.210937-4.34375.484374-9.660156-3.859376-11.871093-4.34375-2.214844-9.660156-.484375-11.875 3.859375-.019531.039062-.039062.078125-.058593.121094zm39.265625 82.554687c4.359375 2.175781 9.660156.402344 11.835937-3.957031l8.828125-17.652344c2.210938-4.347656.484375-9.660156-3.859375-11.875-4.34375-2.210938-9.660156-.484375-11.871093 3.859375-.023438.042969-.042969.082031-.0625.121094l-8.828126 17.65625c-2.179687 4.359375-.410156 9.664062 3.949219 11.84375.003907 0 .003907 0 .007813.003906zm-65.75-29.503906-8.824219 17.65625c-2.214844 4.34375-.484375 9.660156 3.859375 11.871093 4.34375 2.214844 9.660156.488282 11.871094-3.859374.019531-.039063.039062-.078126.0625-.121094l8.824218-17.652344c2.214844-4.347656.484376-9.660156-3.859374-11.875-4.34375-2.210938-9.660157-.484375-11.871094 3.859375-.019532.042969-.039063.082031-.0625.121094zm-122.3125-382.5625-4.414063-17.089844c-35.085937 9.046875-59.597656 40.703125-59.574219 76.9375h17.652344c-.007812-28.179687 19.050782-52.800781 46.335938-59.847656zm236.144531 183.433593h-35.308594v17.65625h35.308594zm-52.964844 0h-17.65625v17.65625h17.65625zm-220.6875 0h-35.308593v17.65625h35.308593zm-52.964843 0h-17.652344v17.65625h17.652344zm-79.445313-26.480468v-8.828125c.046875-40.445313 30.429687-74.417969 70.617187-78.960938v-18.140625c-.042968-58.464844 47.316407-105.8984372 105.78125-105.941406 40.597657-.03125 77.640626 23.164062 95.34375 59.703125 42.5-18.15625 91.667969 1.574219 109.824219 44.070313 2.710938 6.347656 4.625 13.003906 5.703125 19.820312h9.964844c43.859375.050781 79.398438 35.589844 79.449219 79.449219v8.828125c-.050781 43.855468-35.589844 79.398437-79.449219 79.445312h-134.175781l-20.304688 44.136719h39.722657c4.875.003906 8.828124 3.957031 8.824218 8.832031 0 1.960938-.652344 3.867188-1.859375 5.417969l-123.582031 158.894531c-2.996094 3.84375-8.542969 4.535156-12.390625 1.539063-3.003906-2.339844-4.167969-6.339844-2.890625-9.925781l39.925781-111.792969h-31.609375c-4.875 0-8.828125-3.953125-8.828125-8.828125 0-.769532.101563-1.53125.300781-2.273438l22.933594-86h-93.855468c-43.855469-.046875-79.398438-35.589844-79.445313-79.445312zm259.863281 44.136718h-58.878906l-30.597656 114.753907h32.660156c4.875.007812 8.824219 3.960937 8.820312 8.835937 0 1.007813-.171874 2.011719-.511718 2.960938l-25.601563 71.75 78.671875-101.199219h-35.46875c-4.875-.003906-8.824218-3.957031-8.824218-8.832031 0-1.273438.277343-2.53125.808593-3.6875zm-242.210937-44.136718c.039062 34.109375 27.683593 61.75 61.792969 61.789062h98.558593l7.671875-28.757812c1.03125-3.863282 4.53125-6.550782 8.527344-6.550782h79.449219c4.875.003907 8.824219 3.957032 8.820312 8.832032 0 1.273437-.273437 2.53125-.804687 3.6875l-10.488282 22.789062h126.054688c34.113281-.039062 61.753906-27.679687 61.792969-61.789062v-8.828125c-.039063-34.113281-27.679688-61.753907-61.792969-61.792969h-26.207031l-.488281-8.316406c-2.066407-36.417969-33.261719-64.265625-69.679688-62.199219-10.257812.582031-20.234375 3.546875-29.140625 8.660156l-8.988281 5.15625-3.664063-9.710937c-17.128906-45.605469-67.984375-68.695313-113.59375-51.566406-34.4375 12.933593-57.234375 45.878906-57.199219 82.667968v35.308594h-8.828124c-34.109376.039062-61.753907 27.679688-61.792969 61.792969zm0 0" fill="url(#a)"/></svg>