<svg height="512pt" viewBox="-30 0 512 512.00002" width="512pt" xmlns="http://www.w3.org/2000/svg" xmlns:xlink="http://www.w3.org/1999/xlink"><linearGradient id="a" gradientTransform="matrix(.355387 0 0 -.355387 -29.815518 503.223511)" gradientUnits="userSpaceOnUse" x1="224.1764" x2="1216.4952" y1="199.4931" y2="1191.812"><stop offset="0" stop-color="#41dfd0"/><stop offset="1" stop-color="#ee83ef"/></linearGradient><path d="m116.429688 239.964844c-8.859376 60.625 33.105468 116.949218 93.726562 125.808594 60.625 8.855468 116.949219-33.105469 125.808594-93.730469 8.855468-60.621094-33.105469-116.949219-93.730469-125.804688-.003906 0-.003906-.003906-.007813-.003906-60.15625-9.199219-116.382812 32.109375-125.582031 92.265625-.078125.488281-.148437.976562-.214843 1.464844zm202.648437 29.601562c-7.492187 51.296875-55.148437 86.808594-106.445313 79.316406-51.296874-7.492187-86.808593-55.148437-79.316406-106.445312 7.488282-51.28125 55.117188-86.789062 106.402344-79.324219 51.277344 7.535157 86.78125 55.160157 79.359375 106.453125zm-156.851563 11.785156c-4.5625 1.183594-9.21875-1.554687-10.402343-6.117187-10.023438-38.832031 11.496093-78.847656 49.425781-91.886719 4.441406-1.574218 9.320312.75 10.890625 5.195313 1.574219 4.441406-.75 9.316406-5.191406 10.890625-.050781.015625-.097657.035156-.144531.050781-29.503907 10.136719-46.25 41.257813-38.460938 71.464844 1.183594 4.5625-1.554688 9.21875-6.117188 10.402343zm52.171876 42.429688c-1.09375 3.59375-4.40625 6.050781-8.164063 6.050781-.84375 0-1.679687-.128906-2.484375-.378906-12.597656-3.839844-23.992188-10.867187-33.082031-20.394531-3.253907-3.40625-3.128907-8.808594.28125-12.0625 3.410156-3.257813 8.8125-3.128906 12.066406.28125 7.058594 7.417968 15.910156 12.894531 25.699219 15.894531 4.492187 1.371094 7.03125 6.113281 5.683594 10.609375zm118.503906-138.984375 110.933594-63.800781 8.53125 14.785156-110.929688 63.8125zm-97.953125-56.796875h-17.066407l.230469-128h17.066407zm-123.777344 71.195312-110.738281-64.199218 8.535156-14.769532 110.738281 64.195313zm-102.640625 191.808594-8.53125-14.785156 110.933594-63.804688 8.53125 14.789063zm225.75 120.996094h-17.066406l.222656-128h17.066406zm209.109375-120.226562-110.734375-64.195313 8.53125-14.761719 110.761719 64.1875zm-145.824219-242.347657-14.78125-8.53125 38.402344-66.519531 14.785156 8.535156zm-142.78125 0-38.398437-66.507812 14.769531-8.53125 38.402344 66.507812zm-133.390625 115.105469v-17.066406h76.796875v17.066406zm109.8125 173.117188-14.777343-8.53125 38.398437-66.5625 14.78125 8.535156zm190.03125 0-38.402343-66.507813 14.78125-8.535156 38.398437 66.511719zm109.753907-190.183594v17.066406h-76.800782v-17.066406zm0 0" fill="url(#a)"/></svg>