<svg height="511pt" viewBox="1 -21 511.99967 511" width="511pt" xmlns="http://www.w3.org/2000/svg" xmlns:xlink="http://www.w3.org/1999/xlink"><linearGradient id="a" gradientTransform="matrix(.355387 0 0 -.355387 0 490.906086)" gradientUnits="userSpaceOnUse" x1="110.3475" x2="1199.2305" y1="11.036" y2="1099.9189"><stop offset="0" stop-color="#41dfd0"/><stop offset="1" stop-color="#ee83ef"/></linearGradient><path d="m456.738281 291.101562c14.902344 5.703126 30.777344 8.441407 46.726563 8.066407 4.714844 0 8.535156 3.820312 8.535156 8.53125 0 4.714843-3.820312 8.535156-8.535156 8.535156-17.847656.394531-35.601563-2.664063-52.289063-9.003906-14.894531-5.699219-30.753906-8.4375-46.695312-8.0625-15.949219-.378907-31.820313 2.359375-46.71875 8.0625-4.542969 1.570312-9.082031 3.132812-14.175781 4.496093-4.550782 1.226563-9.234376-1.472656-10.460938-6.023437s1.472656-9.238281 6.023438-10.460937c4.695312-1.253907 8.867187-2.707032 13.046874-4.140626 16.6875-6.339843 34.4375-9.398437 52.285157-9 17.835937-.394531 35.582031 2.664063 52.257812 9zm-151.3125 25.132813c4.710938 0 8.53125-3.820313 8.53125-8.535156 0-4.710938-3.820312-8.53125-8.53125-8.53125-15.941406.378906-31.804687-2.363281-46.695312-8.066407-16.664063-6.335937-34.398438-9.394531-52.222657-9-17.839843-.398437-35.589843 2.660157-52.269531 9-6.316406 2.324219-12.785156 4.207032-19.359375 5.640626-4.59375 1.054687-7.464844 5.632812-6.410156 10.226562 1.019531 4.4375 5.339844 7.292969 9.824219 6.492188 7.3125-1.570313 14.503906-3.652344 21.527343-6.230469 14.890626-5.699219 30.746094-8.441407 46.6875-8.0625 15.941407-.378907 31.808594 2.359375 46.703126 8.0625 16.660156 6.335937 34.390624 9.394531 52.214843 9.003906zm-296.894531-17.066406c15.941406-.378907 31.804688 2.359375 46.695312 8.0625 14.996094 5.71875 30.886719 8.746093 46.933594 8.933593h.238282c4.714843.058594 8.582031-3.71875 8.636718-8.429687.058594-4.710937-3.71875-8.578125-8.429687-8.636719-14.304688-.15625-28.460938-2.867187-41.8125-7.996094-16.679688-6.339843-34.421875-9.398437-52.261719-9-4.710938 0-8.53125 3.820313-8.53125 8.53125 0 4.714844 3.820312 8.535157 8.53125 8.535157zm494.933594 51.199219c-15.953125.378906-31.828125-2.359376-46.734375-8.0625-3.414063-1.1875-6.828125-2.375-10.554688-3.476563-4.546875-1.25-9.242187 1.414063-10.496093 5.957031-1.21875 4.410156 1.257812 8.996094 5.613281 10.394532 3.414062 1.039062 6.65625 2.140624 9.871093 3.25 16.691407 6.34375 34.453126 9.398437 52.300782 9.003906 4.714844 0 8.535156-3.820313 8.535156-8.535156 0-4.710938-3.820312-8.53125-8.535156-8.53125zm-266.496094 3.113281c5.488281 1.367187 10.898438 3.019531 16.214844 4.949219 16.671875 6.339843 34.410156 9.394531 52.242187 9.003906 17.847657.394531 35.605469-2.660156 52.292969-9.003906 14.910156-5.707032 30.796875-8.445313 46.761719-8.0625 1.707031 0 3.355469 0 4.941406.066406 4.628906.179687 8.527344-3.425782 8.707031-8.054688.003906-.089844.003906-.175781.003906-.265625.121094-4.710937-3.601562-8.625-8.3125-8.746093-.003906 0-.003906 0-.007812 0-1.730469-.066407-3.515625-.066407-5.332031-.066407-17.847657-.398437-35.605469 2.660157-52.292969 9.003907-14.914062 5.707031-30.796875 8.445312-46.761719 8.0625-15.949219.378906-31.816406-2.363282-46.710937-8.0625-5.839844-2.125-11.785156-3.9375-17.820313-5.421876-4.542969-1.25-9.238281 1.417969-10.492187 5.960938-1.25 4.542969 1.417968 9.242188 5.960937 10.496094.199219.054687.402344.101562.605469.140625zm-82.769531-11.175781c-14.886719 5.699218-30.742188 8.4375-46.679688 8.0625-9.691406.136718-19.367187-.78125-28.859375-2.738282-4.578125-1.128906-9.199218 1.667969-10.324218 6.246094-1.128907 4.574219 1.667968 9.199219 6.246093 10.324219.140625.035156.285157.066406.425781.09375 10.691407 2.234375 21.59375 3.285156 32.511719 3.140625 17.84375.394531 35.59375-2.660156 52.277344-9.003906 14.894531-5.703126 30.761719-8.445313 46.710937-8.0625 4.710938 0 8.53125-3.820313 8.53125-8.535157 0-4.710937-3.820312-8.53125-8.53125-8.53125-17.859374-.402343-35.625 2.65625-52.320312 9.003907zm-145.667969 8.0625c10.789062-.179688 21.558594.992187 32.054688 3.5.679687.171874 1.378906.257812 2.082031.253906 4.710937-.019532 8.515625-3.855469 8.496093-8.566406-.015624-3.890626-2.65625-7.273438-6.421874-8.234376-11.855469-2.859374-24.019532-4.210937-36.207032-4.019531-4.714844 0-8.535156 3.820313-8.535156 8.53125 0 4.714844 3.820312 8.535157 8.53125 8.535157zm494.933594 51.199218c-15.949219.378906-31.824219-2.359375-46.726563-8.0625-16.675781-6.339844-34.421875-9.398437-52.257812-9.003906-17.847657-.394531-35.597657 2.660156-52.285157 9.003906-4.179687 1.433594-8.351562 2.882813-13.046874 4.136719-4.550782 1.226563-7.25 5.910156-6.023438 10.460937 1.226562 4.554688 5.910156 7.25 10.460938 6.027344 5.121093-1.367187 9.632812-2.929687 14.175781-4.496094 14.898437-5.707031 30.769531-8.445312 46.71875-8.066406 15.953125-.378906 31.824219 2.359375 46.726562 8.066406 16.679688 6.335938 34.421875 9.390626 52.257813 9 4.714844 0 8.535156-3.820312 8.535156-8.53125 0-4.714843-3.820312-8.535156-8.535156-8.535156zm-189.507813 8.535156c0-4.714843-3.820312-8.535156-8.53125-8.535156-15.941406.378906-31.804687-2.359375-46.695312-8.0625-16.664063-6.339844-34.398438-9.394531-52.222657-9.003906-17.839843-.394531-35.589843 2.660156-52.269531 9.003906-3.703125 1.269532-7.40625 2.558594-11.457031 3.703125-4.542969 1.261719-7.199219 5.964844-5.9375 10.507813 1.265625 4.539062 5.96875 7.195312 10.507812 5.933594.03125-.007813.058594-.015626.085938-.023438 4.378906-1.238281 8.371094-2.621094 12.367188-3.992188 14.894531-5.703124 30.757812-8.445312 46.703124-8.066406 15.945313-.378906 31.808594 2.359375 46.703126 8.066406 16.660156 6.335938 34.390624 9.390626 52.214843 9 4.710938 0 8.53125-3.820312 8.53125-8.53125zm-305.425781-8.535156c16.554688-.257812 33.015625 2.492188 48.582031 8.125 17.257813 6.183594 35.488281 9.210938 53.820313 8.941406 4.710937 0 8.53125-3.820312 8.53125-8.53125 0-4.714843-3.820313-8.535156-8.53125-8.535156-16.550782.261719-33.011719-2.492187-48.582032-8.121094-17.257812-6.183593-35.488281-9.214843-53.820312-8.945312-4.710938 0-8.53125 3.820312-8.53125 8.535156 0 4.710938 3.820312 8.53125 8.53125 8.53125zm494.933594 51.199219c-15.953125.378906-31.828125-2.359375-46.734375-8.0625-12.175781-4.625-24.953125-7.480469-37.941407-8.484375-4.644531-.417969-8.753906 3.007812-9.175781 7.652344-.003906.066406-.007812.128906-.011719.191406-.367187 4.699219 3.140626 8.804688 7.839844 9.171875h.007813c11.539062.898437 22.886719 3.457031 33.691406 7.597656 16.699219 6.34375 34.464844 9.398438 52.324219 9 4.714844 0 8.535156-3.820312 8.535156-8.53125 0-4.714843-3.820312-8.535156-8.535156-8.535156zm-120.539063-15.820313c-10.519531 1.417969-20.839843 4.019532-30.773437 7.757813-14.902344 5.703125-30.773438 8.441406-46.726563 8.0625-10.222656.164063-20.425781-.875-30.40625-3.097656-4.585937-1.078125-9.179687 1.765625-10.261719 6.355469-1.078124 4.585937 1.765626 9.179687 6.355469 10.261718 11.257813 2.523438 22.773438 3.714844 34.3125 3.546875 17.84375.398438 35.597657-2.660156 52.28125-9 8.832031-3.339843 18.011719-5.667969 27.367188-6.949219 4.679687-.59375 7.988281-4.863281 7.394531-9.542968-.59375-4.675782-4.867188-7.988282-9.542969-7.394532zm-142.03125 2.339844c-11.28125-2.550781-22.824219-3.753906-34.386719-3.585937-17.84375-.394531-35.59375 2.660156-52.277343 9.003906-14.894531 5.703125-30.761719 8.445313-46.710938 8.0625-7.007812.050781-14.011719-.390625-20.957031-1.320313-4.65625-.742187-9.027344 2.429688-9.769531 7.085938-.738281 4.652344 2.433593 9.027344 7.085937 9.765625.097656.015625.195313.03125.292969.042969 7.738281 1.042968 15.539063 1.542968 23.347656 1.492187 17.84375.398438 35.59375-2.660156 52.277344-9 14.894531-5.707031 30.761719-8.445312 46.710937-8.066406 10.253907-.164063 20.492188.882813 30.503907 3.117187 4.546875 1.25 9.242187-1.417968 10.496093-5.960937 1.25-4.542969-1.417968-9.242187-5.960937-10.492187-.199219-.058594-.402344-.105469-.609375-.144532zm-187.074219 3.054688c-14.613281-4.75-29.925781-6.992188-45.285156-6.640625-4.714844 0-8.535156 3.820312-8.535156 8.535156 0 4.710937 3.820312 8.53125 8.535156 8.53125 13.582032-.355469 27.125 1.617187 40.046875 5.828125.847657.265625 1.730469.402344 2.617188.402344 4.714843.003906 8.539062-3.8125 8.542969-8.527344.003906-3.707031-2.390626-6.996094-5.921876-8.128906zm-53.820312-313.839844c.078125-70.660156 57.339844-127.921875 128-128 33.054688-.0625 64.820312 12.828125 88.480469 35.910156 48.472656-24.1875 107.371093-4.503906 131.558593 43.96875 1.1875 2.378906 2.277344 4.808594 3.269532 7.28125 31.242187-7.023437 63.503906 6.511719 80.382812 33.722656 36.921875 7.640626 60.660156 43.761719 53.019532 80.683594-6.539063 31.597656-34.308594 54.304688-66.578126 54.433594h-290.132812c-70.660156-.078125-127.921875-57.339844-128-128zm17.066406 0c.070313 61.238281 49.695313 110.863281 110.933594 110.933594h290.132812c28.277344-.207032 51.03125-23.296875 50.824219-51.574219-.183593-25.257813-18.761719-46.605469-43.75-50.28125-2.640625-.355469-4.960937-1.9375-6.261719-4.265625-12.339843-22.347656-37.675781-34.199219-62.738281-29.347656 1.109375 5.132812 1.804688 10.347656 2.082031 15.59375.230469 4.707031-3.398437 8.710937-8.105468 8.941406-.003906 0-.011719 0-.019532 0h-.410156c-4.558594.003906-8.316406-3.578125-8.53125-8.132812-2.136718-44.71875-40.121094-79.242188-84.839844-77.109376-23.453124 1.121094-45.265624 12.351563-59.800781 30.789063-2.921875 3.703125-8.289062 4.332031-11.988281 1.410156s-4.332031-8.289062-1.410156-11.988281c5.335937-6.6875 11.515625-12.652344 18.390625-17.742188-20.179688-18.191406-46.402344-28.230468-73.574219-28.160156-61.238281.070313-110.863281 49.695313-110.933594 110.933594zm0 0" fill="url(#a)"/></svg>