<svg height="511pt" viewBox="-3 0 511 511.99924" width="511pt" xmlns="http://www.w3.org/2000/svg" xmlns:xlink="http://www.w3.org/1999/xlink"><linearGradient id="a" gradientTransform="matrix(.355407 0 0 -.355407 -3.246665 503.251785)" gradientUnits="userSpaceOnUse" x1="189.4285" x2="1156.5354" y1="198.177" y2="1165.2839"><stop offset="0" stop-color="#41dfd0"/><stop offset="1" stop-color="#ee83ef"/></linearGradient><path d="m454.0625 189.949219v-19.300781c-.039062-47.132813-38.277344-85.308594-85.410156-85.265626-36.835938.03125-69.496094 23.695313-81 58.691407-40.605469-18.867188-88.816406-1.238281-107.679688 39.367187-.8125 1.742188-1.558594 3.515625-2.242187 5.316406-13.960938 2.363282-26.828125 9.042969-36.800781 19.097657-46.484376-36.003907-54.980469-102.871094-18.976563-149.355469 14.160156-18.285156 33.894531-31.460938 56.210937-37.535156 4.546876-1.242188 7.226563-5.933594 5.988282-10.480469-.8125-2.976563-3.171875-5.285156-6.167969-6.03125-76.136719-19.429687-153.605469 26.542969-173.035156 102.679687-19.425781 76.136719 26.546875 153.609376 102.683593 173.035157 6.4375 1.644531 12.980469 2.832031 19.585938 3.558593 10.960938 24.609376 35.359375 40.480469 62.296875 40.527344h73.5l-30.386719 91.175782c-1.492187 4.472656.925782 9.304687 5.398438 10.792968.867187.289063 1.777344.4375 2.691406.4375h40.789062l-15.019531 75.097656c-.753906 3.859376 1.226563 7.738282 4.796875 9.386719 1.109375.546875 2.328125.839844 3.566406.855469 2.617188 0 5.089844-1.203125 6.707032-3.261719l93.875-119.472656c2.910156-3.703125 2.269531-9.070313-1.4375-11.980469-1.503906-1.183594-3.359375-1.824218-5.273438-1.828125h-44.332031l31.996094-51.199219h80.609375c37.703125-.144531 68.152344-30.828124 68.011718-68.53125-.117187-30.933593-21.023437-57.925781-50.945312-65.777343zm-332.816406 66.035156c.023437 3.3125.289062 6.617187.800781 9.890625-68.222656-11.632812-114.09375-76.371094-102.460937-144.59375 10.273437-60.230469 62.488281-104.273438 123.589843-104.242188h.675781c-58.894531 34.335938-78.796874 109.910157-44.460937 168.800782 8.003906 13.734375 18.585937 25.789062 31.164063 35.507812-6.128907 10.511719-9.34375 22.46875-9.308594 34.636719zm180.503906 123.484375c-2.496094 3.996094-1.28125 9.261719 2.714844 11.761719 1.355468.847656 2.925781 1.296875 4.523437 1.296875h42.175781l-60.949218 77.554687 10.070312-50.246093c.941406-4.617188-2.039062-9.125-6.65625-10.070313-.5625-.113281-1.132812-.171875-1.707031-.171875h-39.359375l28.445312-85.335938h55.289063zm135.246094-72.28125h-247.480469c-28.277344-.164062-51.070313-23.222656-50.90625-51.5.15625-26.253906 20.140625-48.136719 46.273437-50.667969 3.460938-.3125 6.390626-2.695312 7.398438-6.023437 10.234375-33.792969 45.929688-52.890625 79.722656-42.65625 5.839844 1.769531 11.398438 4.367187 16.503906 7.710937 3.941407 2.585938 9.230469 1.488281 11.816407-2.453125.632812-.960937 1.0625-2.039062 1.265625-3.171875 6.847656-37.078125 42.453125-61.585937 79.53125-54.738281 32.3125 5.964844 55.789062 34.101562 55.875 66.957031v26.277344c0 4.242187 3.113281 7.839844 7.3125 8.449219 27.957031 4.269531 47.15625 30.390625 42.886718 58.347656-3.796874 24.847656-25.066406 43.265625-50.199218 43.46875zm-16.214844 55.921875 8.535156-17.066406c2.105469-4.21875 7.234375-5.929688 11.449219-3.824219 4.21875 2.105469 5.933594 7.234375 3.824219 11.453125l-8.53125 17.066406c-2.109375 4.21875-7.234375 5.929688-11.453125 3.824219s-5.929688-7.234375-3.824219-11.453125zm-209.480469 11.496094c-4.214843-2.105469-5.929687-7.230469-3.824219-11.445313 0-.003906 0-.003906.003907-.007812l8.53125-17.066406c2.109375-4.21875 7.234375-5.929688 11.453125-3.824219s5.929687 7.234375 3.824218 11.453125l-8.535156 17.066406c-2.105468 4.21875-7.226562 5.929688-11.445312 3.828125-.003906 0-.003906-.003906-.007813-.003906zm207.773438 30.269531-8.53125 17.066406c-2.109375 4.21875-7.234375 5.929688-11.453125 3.824219s-5.929688-7.234375-3.824219-11.453125l8.535156-17.066406c2.105469-4.21875 7.234375-5.929688 11.449219-3.824219 4.21875 2.105469 5.929688 7.234375 3.824219 11.453125zm-233.375 20.933594c-4.214844-2.105469-5.929688-7.230469-3.824219-11.445313 0-.003906 0-.003906.003906-.007812l8.53125-17.066407c2.109375-4.21875 7.234375-5.929687 11.453125-3.824218 4.21875 2.105468 5.929688 7.234375 3.824219 11.453125l-8.535156 17.066406c-2.105469 4.21875-7.226563 5.929687-11.445313 3.828125-.003906-.003906-.003906-.003906-.007812-.003906zm187.746093 51.203125c-4.21875-2.105469-5.929687-7.230469-3.828124-11.445313.003906-.003906.003906-.003906.003906-.007812l8.535156-17.066406c2.105469-4.21875 7.234375-5.929688 11.449219-3.824219 4.21875 2.105469 5.933593 7.234375 3.824219 11.453125l-8.53125 17.066406c-2.105469 4.21875-7.230469 5.929688-11.449219 3.828125 0-.003906-.003907-.003906-.003907-.003906zm122.433594-123.339844-8.535156 17.066406c-2.105469 4.21875-7.234375 5.929688-11.449219 3.824219-4.21875-2.105469-5.929687-7.234375-3.824219-11.453125l8.535157-17.066406c2.105469-4.21875 7.230469-5.929688 11.449219-3.824219s5.929687 7.234375 3.824218 11.453125zm-25.601562 51.203125-8.535156 17.066406c-2.105469 4.21875-7.234376 5.929688-11.449219 3.824219-4.21875-2.105469-5.929688-7.234375-3.824219-11.453125l8.535156-17.066406c2.105469-4.21875 7.230469-5.929688 11.449219-3.824219s5.929687 7.234375 3.824219 11.453125zm-49.410156 60.640625 8.535156-17.066406c2.105468-4.21875 7.230468-5.929688 11.449218-3.824219s5.929688 7.234375 3.824219 11.453125l-8.535156 17.066406c-2.105469 4.21875-7.234375 5.929688-11.449219 3.824219-4.21875-2.105469-5.929687-7.234375-3.824218-11.453125zm-264.546876 0 8.53125-17.066406c2.109376-4.21875 7.234376-5.929688 11.453126-3.824219s5.929687 7.234375 3.824218 11.453125l-8.535156 17.066406c-2.105469 4.21875-7.234375 5.929688-11.453125 3.824219s-5.929687-7.234375-3.820313-11.453125zm0-102.40625 8.53125-17.066406c2.109376-4.21875 7.234376-5.929688 11.453126-3.824219s5.929687 7.234375 3.824218 11.453125l-8.535156 17.066406c-2.105469 4.21875-7.234375 5.929688-11.453125 3.824219s-5.929687-7.234375-3.820313-11.453125zm-21.824218 62.699219c-4.214844-2.105469-5.929688-7.230469-3.824219-11.445313 0-.003906 0-.003906.003906-.007812l8.53125-17.066407c2.109375-4.21875 7.234375-5.929687 11.453125-3.824218 4.21875 2.105468 5.929688 7.234375 3.824219 11.453125l-8.535156 17.066406c-2.101563 4.21875-7.226563 5.929687-11.445313 3.828125 0-.003906-.003906-.003906-.007812-.003906zm-25.601563 51.203125c-4.214843-2.105469-5.929687-7.230469-3.824219-11.445313 0-.003906 0-.003906.003907-.007812l8.53125-17.066406c2.109375-4.21875 7.234375-5.929688 11.453125-3.824219s5.929687 7.234375 3.824218 11.453125l-8.535156 17.066406c-2.101562 4.21875-7.226562 5.929688-11.445312 3.828125-.003906-.003906-.003906-.003906-.007813-.003906zm55.019531-417.304688h17.066407v17.066407h-17.066407zm25.601563 34.136719h17.066406v17.066406h-17.066406zm-42.667969 42.667969v-17.066407h17.066406v17.066407zm0 0" fill="url(#a)"/></svg>