<svg height="512pt" viewBox="-30 0 512 512.00007" width="512pt" xmlns="http://www.w3.org/2000/svg" xmlns:xlink="http://www.w3.org/1999/xlink"><linearGradient id="a" gradientTransform="matrix(.418172 0 0 -.418172 -30.12703 491.717656)" gradientUnits="userSpaceOnUse" x1="246.1424" x2="1035.993" y1="217.6389" y2="1007.4896"><stop offset="0" stop-color="#41dfd0"/><stop offset="1" stop-color="#ee83ef"/></linearGradient><path d="m451.746094 200.734375c-.175782-36.554687-24.886719-68.425781-60.246094-77.699219v-22.710937c-.046875-55.453125-45.039062-100.371094-100.492188-100.324219-43.34375.0351562-81.769531 27.878906-95.304687 69.054688-47.777344-22.195313-104.503906-1.457032-126.699219 46.324218-.953125 2.050782-1.832031 4.136719-2.636718 6.25-43.6875 7.71875-72.847657 49.390625-65.128907 93.078125 6.773438 38.339844 40.0625 66.300781 78.996094 66.351563h291.183594c44.34375-.046875 80.277343-35.984375 80.328125-80.324219zm-80.328125 60.242187h-291.183594c-33.273437-.191406-60.089844-27.320312-59.894531-60.59375.179687-30.890624 23.695312-56.640624 54.441406-59.613281 4.074219-.371093 7.519531-3.175781 8.703125-7.089843 12.046875-39.761719 54.042969-62.234376 93.804687-50.191407 6.871094 2.082031 13.410157 5.136719 19.417969 9.074219 4.636719 3.042969 10.859375 1.75 13.90625-2.882812.742188-1.132813 1.246094-2.402344 1.488281-3.734376 8.054688-43.625 49.949219-72.460937 93.574219-64.40625 38.019531 7.019532 65.644531 40.125 65.742188 78.785157v30.914062c0 4.992188 3.664062 9.226563 8.605469 9.941407 32.890624 5.023437 55.480468 35.761718 50.457031 68.652343-4.464844 29.234375-29.488281 50.90625-59.0625 51.144531zm-100.40625 220.902344h-15.925781l11.253906 11.253906-14.195313 14.199219-11.257812-11.257812v15.925781h-20.082031v-15.925781l-11.253907 11.257812-14.199219-14.199219 11.257813-11.253906h-15.925781v-20.082031h15.925781l-11.257813-11.257813 14.199219-14.195312 11.253907 11.253906v-15.925781h20.082031v15.925781l11.257812-11.253906 14.195313 14.195312-11.253906 11.257813h15.925781zm130.53125-110.449218h-15.925781l11.253906 11.253906-14.195313 14.199218-11.257812-11.257812v15.925781h-20.082031v-15.925781l-11.253907 11.257812-14.199219-14.199218 11.257813-11.253906h-15.925781v-20.082032h15.925781l-11.257813-11.257812 14.199219-14.199219 11.253907 11.257813v-15.925782h20.082031v15.925782l11.257812-11.257813 14.195313 14.199219-11.253906 11.257812h15.925781zm-251.023438 20.078124h-15.925781l11.257812 11.257813-14.199218 14.199219-11.257813-11.257813v15.925781h-20.078125v-15.925781l-11.257812 11.257813-14.199219-14.199219 11.257813-11.257813h-15.925782v-20.078124h15.925782l-11.257813-11.257813 14.199219-14.199219 11.257812 11.257813v-15.925781h20.078125v15.925781l11.257813-11.257813 14.199218 14.199219-11.257812 11.257813h15.925781zm0 0" fill="url(#a)"/></svg>