<svg height="512pt" viewBox="0 -48 512.00001 512" width="512pt" xmlns="http://www.w3.org/2000/svg" xmlns:xlink="http://www.w3.org/1999/xlink"><linearGradient id="a" gradientTransform="matrix(.355458 0 0 -.355458 0 449.288538)" gradientUnits="userSpaceOnUse" x1="322.5884" x2="1117.5938" y1="210.2368" y2="1005.242"><stop offset="0" stop-color="#41dfd0"/><stop offset="1" stop-color="#ee83ef"/></linearGradient><path d="m150.644531 169.617188-16.644531-3.808594c4.496094-19.566406 16.871094-36.410156 34.199219-46.546875 11.148437-6.339844 23.726562-9.738281 36.546875-9.875v17.070312h-.066406c-25.871094.027344-48.285157 17.9375-54.027344 43.160157zm6.152344 40.25-14.738281 8.597656c5.882812 10.09375 14.109375 18.625 23.992187 24.867187l9.089844-14.449219c-7.570313-4.753906-13.867187-11.28125-18.34375-19.015624zm156.941406-201.417969-14.824219-8.449219-38.050781 66.734375 14.835938 8.460937zm-166.117187 58.890625-38.765625-66.289063-14.738281 8.609375 38.773437 66.320313zm-70.71875 124.09375-.085938-17.070313-76.816406.417969.09375 17.070312zm19.125 164.484375 14.824218 8.460937 38.042969-66.738281-14.824219-8.457031zm415.972656-30.304688c-.054688 49.46875-40.148438 89.558594-89.617188 89.617188h-174.96875c-49.417968.074219-89.542968-39.925781-89.621093-89.34375-.019531-13.746094 3.125-27.3125 9.195312-39.648438-57.726562-20.710937-87.734375-84.300781-67.023437-142.027343 20.714844-57.726563 84.300781-87.734376 142.03125-67.019532 30.734375 11.027344 55.058594 35.023438 66.503906 65.609375 55.941406-6.550781 106.601562 33.488281 113.152344 89.429688.148437 1.253906.269531 2.507812.371094 3.761719h.359374c49.46875.058593 89.5625 40.148437 89.617188 89.621093zm-335.699219-54.308593c10.539063-13.847657 24.890625-24.316407 41.292969-30.128907 1.523438-44.3125 31.34375-82.625 73.921875-94.988281-1.628906-3.964844-3.523437-7.8125-5.667969-11.523438-26.03125-44.839843-83.488281-60.089843-128.332031-34.058593s-60.09375 83.488281-34.058594 128.332031c11.726563 20.203125 30.570313 35.308594 52.84375 42.367188zm318.628907 54.308593c-.046876-40.050781-32.5-72.503906-72.546876-72.550781h-17.070312v-8.535156c0-47.136719-38.214844-85.347656-85.351562-85.347656-47.136719 0-85.351563 38.210937-85.351563 85.347656l.34375 9.390625-6.503906 1.757812c-38.648438 10.476563-61.484375 50.300781-51.007813 88.949219 8.566406 31.59375 37.238282 53.53125 69.972656 53.535156h174.96875c40.046876-.046875 72.5-32.5 72.546876-72.546875zm-279.660157-304.414062h-17.070312v34.140625h17.070312zm-115.222656 90.644531-29.546875-17.070312-8.535156 14.78125 29.546875 17.070312zm-38.269531 145.050781 8.535156 14.800781 29.589844-17.070312-8.535156-14.789062zm259.984375-130.039062 29.582031-17.070313-8.535156-14.789062-29.582032 17.070312zm79.28125 254.234375h34.140625v-17.070313h-34.140625zm-34.140625 0h17.070312v-17.070313h-17.070312zm0 0" fill="url(#a)"/></svg>