<svg height="511pt" viewBox="0 -4 511.99999 511" width="511pt" xmlns="http://www.w3.org/2000/svg" xmlns:xlink="http://www.w3.org/1999/xlink"><linearGradient id="a" gradientTransform="matrix(.361625 0 0 -.361625 -.000015 499.38168)" gradientUnits="userSpaceOnUse" x1="58.5356" x2="1359.489" y1="-24.2943" y2="1276.635"><stop offset="0" stop-color="#41dfd0"/><stop offset="1" stop-color="#ee83ef"/></linearGradient><path d="m69.21875 295.722656h251.808594c38.367187-.058594 69.417968-31.210937 69.355468-69.574218-.054687-33.660157-24.234374-62.441407-57.378906-68.296876-16.210937-42.574218-63.867187-63.945312-106.445312-47.734374-1.820313.691406-3.617188 1.449218-5.386719 2.269531-14.972656-45.554688-64.042969-70.347657-109.601563-55.375-35.609374 11.703125-59.6875 44.933593-59.71875 82.417969v19.640624c-37.109374 9.734376-59.296874 47.710938-49.558593 84.820313 7.988281 30.445313 35.449219 51.714844 66.925781 51.832031zm-7.441406-120.964844c4.273437-.617187 7.441406-4.277343 7.441406-8.59375v-26.734374c.175781-38.367188 31.414062-69.324219 69.78125-69.148438 33.324219.148438 61.851562 23.949219 67.96875 56.710938.847656 4.722656 5.363281 7.859374 10.082031 7.011718 1.152344-.207031 2.25-.644531 3.226563-1.289062 30.046875-19.699219 70.375-11.316406 90.074218 18.730468 3.414063 5.203126 6.0625 10.871094 7.863282 16.828126 1.027344 3.386718 4.003906 5.8125 7.527344 6.128906 28.640624 2.773437 49.613281 28.234375 46.839843 56.875-2.574219 26.589844-24.839843 46.925781-51.554687 47.078125h-251.808594c-28.773438-.234375-51.90625-23.75-51.671875-52.519531.207031-25.574219 18.949219-47.214844 44.230469-51.078126zm129.003906 199.113282h-17.367188v-60.78125h17.367188zm-17.367188 69.464844h17.367188v60.78125h-17.367188zm17.367188-17.367188h-17.367188v-34.730469h17.367188zm104.199219-52.097656h-17.367188v-60.78125h17.367188zm-17.367188 69.464844h17.367188v60.78125h-17.367188zm17.367188-17.367188h-17.367188v-34.730469h17.367188zm-69.464844 17.367188h17.363281v60.78125h-17.363281zm17.363281-17.367188h-17.363281v-60.78125h17.363281zm0-78.144531h-17.363281v-34.734375h17.363281zm156.296875 26.046875h-17.367187v-60.78125h17.367187zm26.050781-199.710938h-17.367187v-17.367187h17.367187zm-17.367187 69.464844h17.367187v26.050781h-17.367187zm52.097656-43.414062h17.367188v34.730468h-17.367188zm0 52.097656h17.367188v17.367187h-17.367188zm0-95.515625h17.367188v26.050781h-17.367188zm-52.097656 34.734375h17.367187v34.730468h-17.367187zm-26.050781 251.808594h17.367187v60.78125h-17.367187zm17.367187-17.367188h-17.367187v-34.730469h17.367187zm-69.464843 17.367188h17.367187v60.78125h-17.367187zm17.367187-17.367188h-17.367187v-60.78125h17.367187zm0-78.144531h-17.367187v-34.734375h17.367187zm-225.761719 95.511719h17.367188v60.78125h-17.367188zm17.367188-17.367188h-17.367188v-60.78125h17.367188zm0-78.144531h-17.367188v-34.734375h17.367188zm-52.097656 26.046875h-17.367188v-60.78125h17.367188zm-17.367188 69.464844h17.367188v60.78125h-17.367188zm17.367188-17.367188h-17.367188v-34.730469h17.367188zm-69.464844 17.367188h17.363281v60.78125h-17.363281zm0-78.148438h17.363281v60.78125h-17.363281zm0-52.097656h17.363281v34.734375h-17.363281zm477.507812-258.261719c-1.144531-20.714844-18.265625-36.9375-39.011718-36.964844-5.238282 0-10.421876 1.070313-15.230469 3.144531-17.367188-22.839843-49.960938-27.273437-72.800781-9.90625-12.023438 9.144532-19.472657 23.070313-20.402344 38.152344-23.484375 11.878906-32.890625 40.546875-21.011719 64.03125 8.125 16.0625 24.613281 26.175782 42.613281 26.140625h95.515625c26.375-.03125 47.730469-21.4375 47.699219-47.8125-.015625-14.238281-6.386719-27.726562-17.371094-36.785156zm-30.328125 67.234375h-95.515625c-16.726562.066406-30.34375-13.4375-30.410156-30.164062-.054688-12.992188 8.183594-24.570313 20.476562-28.777344 3.660157-1.273438 6.035157-4.816406 5.820313-8.683594-.039063-.617188-.113281-1.234375-.226563-1.839844-.082031-19.105468 15.339844-34.660156 34.445313-34.742187 13.027344-.054688 24.984375 7.214843 30.929687 18.808593 1.175782 2.253907 3.285157 3.878907 5.765626 4.445313 2.480468.582031 5.09375.03125 7.128906-1.503906 3.710937-2.820313 8.238281-4.355469 12.902344-4.375 11.988281 0 21.707031 9.71875 21.707031 21.707031v.105469c-.070313.460937-.121094.9375-.148438 1.421875-.207031 3.109375 1.269531 6.09375 3.863281 7.816406 14.023438 9.222656 17.914063 28.070312 8.6875 42.09375-5.628906 8.554688-15.1875 13.699219-25.425781 13.6875zm0 0" fill="url(#a)"/></svg>