<svg height="511pt" viewBox="-12 0 511 511.99993" width="511pt" xmlns="http://www.w3.org/2000/svg" xmlns:xlink="http://www.w3.org/1999/xlink"><linearGradient id="a" gradientTransform="matrix(.369968 0 0 -.369968 -12.287253 488.337056)" gradientUnits="userSpaceOnUse" x1="112.6899" x2="1182.3149" y1="16.8223" y2="1086.4471"><stop offset="0" stop-color="#41dfd0"/><stop offset="1" stop-color="#ee83ef"/></linearGradient><path d="m349.34375 53.25c-12.277344-.003906-24.40625 2.683594-35.53125 7.871094-15.320312-46.609375-65.523438-71.976563-112.132812-56.65625-36.429688 11.972656-61.0625 45.972656-61.097657 84.316406v20.097656c-37.964843 9.960938-60.664062 48.8125-50.703125 86.777344 8.171875 31.148438 36.269532 52.90625 68.472656 53.027344h257.617188c39.25-.0625 71.019531-31.929688 70.957031-71.179688-.054687-34.4375-24.792969-63.878906-58.703125-69.871094-12.328125-32.84375-43.796875-54.542968-78.878906-54.382812zm119.925781 124.367188c-.027343 29.425781-23.875 53.273437-53.296875 53.300781h-257.621094c-29.4375-.238281-53.105468-24.296875-52.863281-53.734375.210938-26.164063 19.382813-48.304688 45.25-52.253906 4.371094-.632813 7.613281-4.378907 7.613281-8.792969v-27.355469c.179688-39.246094 32.140626-70.921875 71.390626-70.742188 34.09375.15625 63.277343 24.503907 69.535156 58.023438.867187 4.828125 5.488281 8.039062 10.316406 7.171875 1.175781-.214844 2.300781-.660156 3.300781-1.316406 30.738281-20.15625 71.996094-11.578125 92.152344 19.160156 3.492187 5.324219 6.203125 11.121094 8.046875 17.214844 1.046875 3.464843 4.09375 5.945312 7.699219 6.273437 27.515625 2.351563 48.609375 25.4375 48.476562 53.050782zm-421.960937 168.785156c0 19.625 15.90625 35.535156 35.53125 35.535156s35.535156-15.910156 35.535156-35.535156-15.910156-35.53125-35.535156-35.53125-35.53125 15.90625-35.53125 35.53125zm35.53125-17.765625c9.8125 0 17.769531 7.953125 17.769531 17.765625s-7.957031 17.769531-17.769531 17.769531-17.765625-7.957031-17.765625-17.769531 7.953125-17.765625 17.765625-17.765625zm-24.257813 58.996093-44.417969 53.300782-13.664062-11.390625 44.417969-53.300781zm45.578125-82.457031 29.609375-35.535156 13.664063 11.390625-29.609375 35.53125zm-71.066406 180.625 29.609375-35.53125 13.664063 11.386719-29.609376 35.535156zm182.449219 8.433594-13.664063-11.390625 29.609375-35.535156 13.664063 11.390625zm11.839843-213.203125-133.25 159.902344-13.664062-11.390625 133.253906-159.902344zm35.535157 159.902344-13.664063-11.390625 133.253906-159.902344 13.660157 11.390625zm-37.941407-23.460938c0-19.625-15.910156-35.535156-35.535156-35.535156s-35.53125 15.910156-35.53125 35.535156 15.90625 35.53125 35.53125 35.53125 35.535156-15.90625 35.535156-35.53125zm-53.300781 0c0-9.8125 7.953125-17.769531 17.765625-17.769531s17.769532 7.957031 17.769532 17.769531-7.957032 17.765625-17.769532 17.765625-17.765625-7.953125-17.765625-17.765625zm-50.910156 94.527344-13.664063-11.390625 44.417969-53.296875 13.664063 11.386719zm195.335937-230.871094-91.792968 106.601563-13.464844-11.550781 91.792969-106.601563zm148.726563 56.390625c0-19.625-15.90625-35.535156-35.53125-35.535156s-35.535156 15.910156-35.535156 35.535156 15.910156 35.535157 35.535156 35.535157 35.53125-15.910157 35.53125-35.535157zm-53.300781 0c0-9.8125 7.957031-17.765625 17.769531-17.765625s17.765625 7.953125 17.765625 17.765625-7.953125 17.765625-17.765625 17.765625-17.769531-7.953125-17.769531-17.765625zm-93.273438 159.902344c19.625 0 35.53125-15.910156 35.53125-35.535156s-15.90625-35.53125-35.53125-35.53125-35.535156 15.90625-35.535156 35.53125 15.910156 35.535156 35.535156 35.535156zm0-53.300781c9.8125 0 17.765625 7.953125 17.765625 17.765625s-7.953125 17.769531-17.765625 17.769531-17.769531-7.957031-17.769531-17.769531 7.957031-17.765625 17.769531-17.765625zm42.363282-12.074219-13.664063-11.386719 44.417969-53.300781 13.664062 11.386719zm124.546874-151.257813-20.726562 26.652344-14.015625-10.910156 20.722656-26.648438zm0 0" fill="url(#a)"/></svg>