<svg height="512pt" viewBox="0 -2 512.00004 512" width="512pt" xmlns="http://www.w3.org/2000/svg" xmlns:xlink="http://www.w3.org/1999/xlink"><linearGradient id="a" gradientTransform="matrix(.364181 0 0 -.364181 -.000161 500.596325)" gradientUnits="userSpaceOnUse" x1="277.6044" x2="1115.6681" y1="235.2569" y2="1073.2965"><stop offset="0" stop-color="#41dfd0"/><stop offset="1" stop-color="#ee83ef"/></linearGradient><path d="m258.164062 183.632812h-17.492187c-.019531-35.898437 24.269531-67.257812 59.035156-76.214843l4.371094 16.929687c-27.035156 6.976563-45.925781 31.363282-45.914063 59.285156zm192.375 104.933594h-34.976562v17.492188h34.976562zm-52.464843 0h-17.488281v17.492188h17.488281zm-352.035157-166.144531c0-33.804687 27.40625-61.210937 61.210938-61.210937s61.210938 27.40625 61.210938 61.210937c0 33.808594-27.40625 61.210937-61.210938 61.210937-33.789062-.039062-61.171875-27.421874-61.210938-61.210937zm17.488282 0c0 24.148437 19.574218 43.722656 43.722656 43.722656s43.722656-19.574219 43.722656-43.722656-19.574218-43.722656-43.722656-43.722656c-24.136719.03125-43.695312 19.589843-43.722656 43.722656zm21.863281 8.746094c4.828125 0 8.742187-3.914063 8.742187-8.746094 0-7.242187 5.871094-13.117187 13.117188-13.117187 4.828125 0 8.746094-3.914063 8.746094-8.742188 0-4.832031-3.917969-8.746094-8.746094-8.746094-16.902344 0-30.605469 13.703125-30.605469 30.605469 0 4.832031 3.914063 8.746094 8.746094 8.746094zm21.859375-87.445313c4.828125 0 8.746094-3.914062 8.746094-8.746094v-26.230468c0-4.832032-3.917969-8.746094-8.746094-8.746094s-8.746094 3.914062-8.746094 8.746094v26.230468c0 4.832032 3.917969 8.746094 8.746094 8.746094zm-102.828125 29.433594 22.738281 13.117188c4.164063 2.441406 9.523438 1.042968 11.964844-3.121094 2.441406-4.167969 1.046875-9.523438-3.121094-11.96875-.03125-.019532-.066406-.035156-.101562-.054688l-22.734375-13.117187c-4.164063-2.441407-9.523438-1.046875-11.964844 3.121093-2.441406 4.164063-1.046875 9.523438 3.121094 11.964844.03125.019532.066406.039063.097656.058594zm4.375 114.851562c1.535156 0 3.042969-.402343 4.371094-1.171874l22.734375-13.117188c4.167968-2.445312 5.566406-7.800781 3.125-11.96875-2.421875-4.125-7.707032-5.542969-11.867188-3.179688l-22.738281 13.117188c-4.179687 2.414062-5.613281 7.765625-3.199219 11.945312 1.5625 2.707032 4.449219 4.375 7.574219 4.375zm107.199219 48.09375v-26.234374c0-4.828126-3.917969-8.742188-8.746094-8.742188s-8.746094 3.914062-8.746094 8.742188v26.234374c0 4.828126 3.917969 8.742188 8.746094 8.742188s8.746094-3.914062 8.746094-8.742188zm59.410156-74.328124c2.414062-4.183594 7.761719-5.617188 11.945312-3.203126l19.324219 11.160157c7.617188-62.28125 64.28125-106.589844 126.5625-98.972657 53.769531 6.578126 95.414063 50.203126 99.492188 104.21875 45.828125 2.101563 81.28125 40.957032 79.179687 86.789063-2.035156 44.449219-38.734375 79.402344-83.230468 79.269531h-218.613282c-45.847656-.03125-82.992187-37.226562-82.960937-83.078125.023437-36.78125 24.246093-69.164062 59.527343-79.570312l-8.027343-4.632813c-4.1875-2.40625-5.628907-7.753906-3.222657-11.941406.003907-.011719.011719-.027344.023438-.039062zm-30.921875 96.1875c.039063 36.207031 29.378906 65.546874 65.582031 65.585937h218.613282c36.21875 0 65.582031-29.363281 65.582031-65.585937 0-36.21875-29.363281-65.582032-65.582031-65.582032h-13.117188v-8.746094c0-53.121093-43.066406-96.1875-96.1875-96.1875-53.125 0-96.191406 43.066407-96.191406 96.1875v8.746094h-13.117188c-36.203125.039063-65.542968 29.378906-65.582031 65.582032zm38.5-170.515626c1.535156.003907 3.046875-.402343 4.375-1.171874l22.734375-13.117188c4.199219-2.386719 5.667969-7.726562 3.28125-11.925781-2.386719-4.195313-7.726562-5.664063-11.925781-3.277344-.03125.019531-.066407.039063-.097657.058594l-22.738281 13.117187c-4.179687 2.414063-5.613281 7.761719-3.199219 11.945313 1.5625 2.703125 4.449219 4.371093 7.570313 4.371093zm66.460937 314.800782c4.828126 0 8.742188-3.914063 8.742188-8.746094v-26.230469c0-4.832031-3.914062-8.746093-8.742188-8.746093-4.832031 0-8.746093 3.914062-8.746093 8.746093v26.230469c0 4.820312 3.898437 8.730469 8.71875 8.746094zm-8.746093 96.1875c0 4.832031 3.914062 8.746094 8.746093 8.746094 4.828126 0 8.742188-3.914063 8.742188-8.746094v-8.742188c0-4.828125-3.914062-8.746094-8.742188-8.746094-4.832031 0-8.746093 3.917969-8.746093 8.746094zm0-43.71875c0 4.828125 3.914062 8.742187 8.746093 8.742187 4.828126 0 8.742188-3.914062 8.742188-8.742187v-26.234375c0-4.832031-3.914062-8.746094-8.742188-8.746094-4.832031 0-8.746093 3.914063-8.746093 8.746094zm-52.46875 43.71875c0 4.832031 3.917969 8.746094 8.746093 8.746094 4.828126 0 8.746094-3.914063 8.746094-8.746094v-26.230469c0-4.832031-3.917968-8.746094-8.746094-8.746094-4.828124 0-8.746093 3.914063-8.746093 8.746094zm0-61.210938c0 4.832032 3.917969 8.746094 8.746093 8.746094 4.828126 0 8.746094-3.914062 8.746094-8.746094v-17.488281c0-4.828125-3.917968-8.742187-8.746094-8.742187-4.828124 0-8.746093 3.914062-8.746093 8.742187zm8.746093-78.699218c-4.828124 0-8.742187 3.914062-8.742187 8.746093v17.488281c0 4.828126 3.914063 8.742188 8.742187 8.742188 4.828126 0 8.746094-3.914062 8.746094-8.742188v-17.488281c0-4.832031-3.917968-8.746093-8.746094-8.746093-.007812 0-.015624 0-.027343 0zm157.402344 43.722656c4.828125 0 8.742188-3.914063 8.742188-8.746094v-26.230469c0-4.832031-3.914063-8.746093-8.742188-8.746093-4.832031 0-8.746094 3.914062-8.746094 8.746093v26.230469c0 4.820312 3.898438 8.730469 8.71875 8.746094zm-8.746094 96.1875c0 4.832031 3.914063 8.746094 8.746094 8.746094 4.828125 0 8.742188-3.914063 8.742188-8.746094v-8.742188c0-4.828125-3.914063-8.746094-8.742188-8.746094-4.832031 0-8.746094 3.917969-8.746094 8.746094zm0-43.71875c0 4.828125 3.914063 8.742187 8.746094 8.742187 4.828125 0 8.742188-3.914062 8.742188-8.742187v-26.234375c0-4.832031-3.914063-8.746094-8.742188-8.746094-4.832031 0-8.746094 3.914063-8.746094 8.746094zm-52.464843 43.71875c0 4.832031 3.914062 8.746094 8.742187 8.746094s8.746094-3.914063 8.746094-8.746094v-26.230469c0-4.832031-3.917969-8.746094-8.746094-8.746094s-8.742187 3.914063-8.742187 8.746094zm0-61.210938c0 4.832032 3.914062 8.746094 8.742187 8.746094s8.746094-3.914062 8.746094-8.746094v-17.488281c0-4.828125-3.917969-8.742187-8.746094-8.742187s-8.742187 3.914062-8.742187 8.742187zm8.742187-43.722656c4.832032 0 8.746094-3.914062 8.746094-8.742188v-17.488281c0-4.832031-3.914062-8.746093-8.746094-8.746093-4.828125 0-8.742187 3.914062-8.742187 8.746093v17.488281c0 4.820313 3.898437 8.730469 8.71875 8.742188zm166.144532-26.230469c0-4.832031-3.914063-8.746093-8.742188-8.746093-4.832031 0-8.746094 3.914062-8.746094 8.746093v26.230469c0 4.832031 3.914063 8.746094 8.746094 8.746094 4.828125 0 8.742188-3.914063 8.742188-8.746094zm-8.742188 113.675781c-4.832031 0-8.746094 3.914063-8.746094 8.746094v8.742188c0 4.832031 3.914063 8.746094 8.746094 8.746094 4.828125 0 8.742188-3.914063 8.742188-8.746094v-8.742188c0-4.828125-3.914063-8.746094-8.742188-8.746094-.007812 0-.019531 0-.027344 0zm8.742188-52.464843c0-4.832031-3.914063-8.746094-8.742188-8.746094-4.832031 0-8.746094 3.914063-8.746094 8.746094v26.234375c0 4.828125 3.914063 8.742187 8.746094 8.742187 4.828125 0 8.742188-3.914062 8.742188-8.742187zm-61.210938 34.976562c-4.828125 0-8.742188 3.914063-8.742188 8.746094v26.230469c0 4.832031 3.914063 8.746094 8.742188 8.746094 4.832031 0 8.746094-3.914063 8.746094-8.746094v-26.230469c0-4.832031-3.914063-8.746094-8.746094-8.746094-.007812 0-.015625 0-.027344 0zm8.746094-43.722656c0-4.828125-3.914063-8.742187-8.746094-8.742187-4.828125 0-8.742188 3.914062-8.742188 8.742187v17.488281c0 4.832032 3.914063 8.746094 8.742188 8.746094 4.832031 0 8.746094-3.914062 8.746094-8.746094zm0-52.464844c0-4.832031-3.914063-8.746093-8.746094-8.746093-4.828125 0-8.742188 3.914062-8.742188 8.746093v17.488281c0 4.828126 3.914063 8.742188 8.742188 8.742188 4.832031 0 8.746094-3.914062 8.746094-8.742188zm0 0" fill="url(#a)"/></svg>