<svg height="511pt" viewBox="1 -21 511.99963 511" width="511pt" xmlns="http://www.w3.org/2000/svg" xmlns:xlink="http://www.w3.org/1999/xlink"><linearGradient id="a" gradientTransform="matrix(.355386 0 0 -.355386 0 490.916851)" gradientUnits="userSpaceOnUse" x1="218.5919" x2="1340.0856" y1="176.8984" y2="1298.4161"><stop offset="0" stop-color="#41dfd0"/><stop offset="1" stop-color="#ee83ef"/></linearGradient><path d="m443.730469.5h-281.597657c-3.558593-.003906-6.742187 2.199219-7.996093 5.527344l-20.316407 54.207031h-31.421874v17.066406h25.019531l-6.542969 17.457031c-1.015625 2.699219-1.820312 5.425782-2.699219 8.140626h-41.375v17.066406h36.691407c-3.644532 16.808594-4.886719 34.046875-3.683594 51.199218h-24.476563v17.066407h26.453125c7.105469 43.511719 29.78125 82.960937 63.804688 110.996093 18.910156 15.570313 32.890625 36.300782 40.242187 59.671876h-19.566406v17.066406h23.628906c1.253907 7.042968 1.914063 14.179687 1.972657 21.332031v12.800781h-34.132813v17.066406h34.132813v34.132813c-.007813 4.714844 3.808593 8.539063 8.519531 8.546875 2.351562.003906 4.601562-.964844 6.214843-2.675781l75.144532-79.425781c35.46875-37.5625 48.160156-91.214844 33.28125-140.6875l-11.375-37.488282c-.375-1.230468-.597656-2.476562-.851563-3.710937v-.554688h-.136719c-3.671874-16.570312.046876-33.917969 10.179688-47.53125l107.714844-143.617187c2.828125-3.769532 2.0625-9.117188-1.707032-11.945313-1.476562-1.109375-3.273437-1.707031-5.121093-1.707031zm-81.066407 102.398438h-29.863281v17.066406h17.066407l-20.679688 27.5625c-12.34375 16.542968-17.390625 37.414062-13.96875 57.773437h-16.554688v17.066407h21.054688l8.949219 29.617187c13.117187 43.609375 1.933593 90.902344-29.320313 124.023437l-60.414062 63.855469v-42.566406c.066406-43.058594-19.199219-83.875-52.480469-111.195313-1.535156-1.273437-2.953125-2.644531-4.4375-3.960937h73.984375v-17.109375h-90.683594c-24.242187-28.710938-37.957031-64.832031-38.886718-102.398438h78.371093v-17.066406h-77.816406c1.179687-15.324218 4.503906-30.40625 9.871094-44.808594l31.191406-83.191406h258.617187zm-123.730468 59.734374h-17.066406v-17.066406h17.066406zm34.132812 102.398438h17.066406v17.066406h-17.066406zm136.53125-25.597656h-17.066406v-17.066406h17.066406zm-34.132812-85.335938h17.066406v17.066406h-17.066406zm8.535156 128h17.066406v17.066406h-17.066406zm-315.734375-8.53125h17.066406v17.066406h-17.066406zm366.933594-93.867187h17.066406v17.066406h-17.066406zm-119.464844-59.734375h-85.335937v-17.066406h85.335937zm-256 0h-59.734375v-17.066406h59.734375zm-34.132813-59.730469h59.730469v17.066406h-59.730469zm-8.535156 110.929687h51.199219v17.066407h-51.199219zm162.132813 204.800782h-25.601563v-17.066406h25.601563zm-76.800781-17.066406h34.132812v17.066406h-34.132812zm34.132812 51.199218h34.136719v17.066406h-34.136719zm-59.730469 0h42.664063v17.066406h-42.664063zm204.796875-187.730468h-85.332031v-17.066407h85.332031zm206.550782 59.910156c-3.347657-.714844-6.792969.652344-8.738282 3.464844l-59.734375 85.332031c-2.699219 3.863281-1.757812 9.183593 2.105469 11.882812 1.429688 1.003907 3.136719 1.539063 4.882812 1.542969h7.527344l-15.164062 30.316406c-2.105469 4.21875-.394532 9.34375 3.820312 11.449219 1.183594.59375 2.492188.898437 3.816406.898437h23.722657l-6.484375 32.425782c-.941406 4.621094 2.035156 9.128906 6.652344 10.070312h.003906c.5625.117188 1.132812.175782 1.707031.171875 4.050781-.003906 7.542969-2.855469 8.351563-6.828125l7.171874-35.839844h27.140626c4.714843 0 8.535156-3.824218 8.53125-8.535156 0-.46875-.039063-.933594-.117188-1.394531l-5.449219-32.734375h5.570313c4.710937 0 8.535156-3.820312 8.535156-8.53125 0-.574219-.058594-1.148438-.171875-1.710938l-17.066406-85.332031c-.679688-3.335937-3.28125-5.949219-6.613281-6.648437zm-47.675782 127.820312 12.800782-25.597656h27.304687l4.265625 25.597656zm2.558594-42.664062 38.894531-55.5625 11.128907 55.5625zm-92.910156 57.667968-8.53125 34.132813c-1.140625 4.570313 1.640625 9.203125 6.214844 10.34375.671874.167969 1.367187.253906 2.0625.253906h42.664062c3.675781 0 6.9375-2.351562 8.097656-5.835937l8.535156-25.601563c.832032-2.5.464844-5.242187-1-7.433593l-17.066406-25.597657c-2.613281-3.921875-7.910156-4.980469-11.832031-2.367187 0 .003906 0 .003906-.003906.003906l-25.597657 17.066406c-1.765624 1.179688-3.03125 2.972656-3.542968 5.035156zm15.753906 7.328126 15.761719-10.496094 10.007812 15.019531-5.265625 15.8125h-25.597656zm0 0" fill="url(#a)"/></svg>