<svg height="512pt" viewBox="0 -48 512.00042 512" width="512pt" xmlns="http://www.w3.org/2000/svg" xmlns:xlink="http://www.w3.org/1999/xlink"><linearGradient id="a" gradientTransform="matrix(.402319 0 0 -.402319 0 463.411585)" gradientUnits="userSpaceOnUse" x1="330.595" x2="963.6167" y1="259.0465" y2="892.0683"><stop offset="0" stop-color="#41dfd0"/><stop offset="1" stop-color="#ee83ef"/></linearGradient><path d="m264.921875 90.804688c3.636719-3.664063 5.640625-8.640626 5.566406-13.800782-.144531-10.671875-8.910156-19.203125-19.582031-19.058594-8.097656.109376-15.265625 5.257813-17.957031 12.894532-1.777344 5.03125-7.296875 7.667968-12.328125 5.890625-5.03125-1.773438-7.667969-7.292969-5.894532-12.324219 7.097657-20.128906 29.167969-30.691406 49.292969-23.59375 15.269531 5.382812 25.566407 19.71875 25.789063 35.910156.308594 21.335938-16.738282 38.886719-38.078125 39.195313-.1875.003906-.375.003906-.5625.003906h-96.605469c-5.332031 0-9.660156-4.324219-9.660156-9.660156 0-5.335938 4.328125-9.660157 9.660156-9.660157h96.605469c5.179687.011719 10.140625-2.082031 13.753906-5.796874zm-255.261719 63.757812h241.507813c42.679687-.003906 77.277343-34.609375 77.269531-77.292969-.007812-42.679687-34.613281-77.27343725-77.292969-77.269531-29.84375.00390625-57.019531 17.191406-69.8125 44.15625-2.175781 4.871094.007813 10.585938 4.882813 12.761719 4.710937 2.101562 10.242187.132812 12.5625-4.472657 13.71875-28.921874 48.285156-41.25 77.207031-27.535156 28.925781 13.71875 41.253906 48.285156 27.535156 77.207032-9.589843 20.226562-29.96875 33.121093-52.351562 33.125h-241.507813c-5.335937 0-9.660156 4.328124-9.660156 9.660156 0 5.335937 4.324219 9.660156 9.660156 9.660156zm425.332032 202.867188c-8.355469.335937-15.914063-4.925782-18.5-12.878907-1.777344-5.027343-7.296876-7.667969-12.328126-5.890625s-7.667968 7.292969-5.890624 12.328125c5.457031 15.441407 20.058593 25.765625 36.4375 25.761719h.5625c20.84375-.441406 37.636718-17.234375 38.078124-38.082031.308594-21.335938-16.738281-38.886719-38.074218-39.195313-.191406-.003906-.378906-.003906-.566406-.003906h-96.601563c-5.335937 0-9.660156 4.324219-9.660156 9.660156 0 5.335938 4.324219 9.660156 9.660156 9.660156h96.601563c10.671874 0 19.320312 8.648438 19.324218 19.316407 0 .09375-.003906.191406-.003906.285156-.335938 10.371094-8.667969 18.703125-19.039062 19.039063zm-212.804688-96.601563c-5.335938 0-9.660156 4.324219-9.660156 9.660156 0 5.335938 4.324218 9.660157 9.660156 9.660157h212.523438c32.011718.007812 57.953124 25.964843 57.945312 57.976562-.011719 32.011719-25.96875 57.953125-57.980469 57.945312-22.382812-.007812-42.761719-12.902343-52.351562-33.125-2.175781-4.871093-7.890625-7.058593-12.761719-4.882812s-7.054688 7.890625-4.878906 12.761719c.0625.136719.125.273437.195312.410156 18.292969 38.5625 64.382813 54.992187 102.945313 36.695313 38.5625-18.292969 54.992187-64.382813 36.699219-102.945313-12.792969-26.964844-39.96875-44.152344-69.8125-44.15625zm-48.304688-57.960937c0-5.335938-4.324218-9.660157-9.660156-9.660157h-86.941406c-5.335938 0-9.660156 4.324219-9.660156 9.660157 0 5.332031 4.324218 9.660156 9.660156 9.660156h86.941406c5.335938 0 9.660156-4.328125 9.660156-9.660156zm28.980469 9.660156h28.984375c5.332032 0 9.65625-4.328125 9.65625-9.660156 0-5.335938-4.324218-9.660157-9.65625-9.660157h-28.984375c-5.332031 0-9.660156 4.324219-9.660156 9.660157 0 5.332031 4.328125 9.660156 9.660156 9.660156zm57.964844-9.660156c0 5.332031 4.324219 9.660156 9.660156 9.660156h115.921875c5.335938 0 9.660156-4.328125 9.660156-9.660156 0-5.335938-4.324218-9.660157-9.660156-9.660157h-115.921875c-5.335937 0-9.660156 4.324219-9.660156 9.660157zm-173.886719-86.945313h28.980469c5.335937 0 9.660156-4.324219 9.660156-9.660156 0-5.332031-4.324219-9.660157-9.660156-9.660157h-28.980469c-5.335937 0-9.660156 4.328126-9.660156 9.660157 0 5.335937 4.324219 9.660156 9.660156 9.660156zm-77.28125 0h38.640625c5.335938 0 9.660157-4.324219 9.660157-9.660156 0-5.332031-4.324219-9.660157-9.660157-9.660157h-38.640625c-5.335937 0-9.660156 4.328126-9.660156 9.660157 0 5.335937 4.324219 9.660156 9.660156 9.660156zm0 96.605469h28.980469c5.335937 0 9.660156-4.328125 9.660156-9.660156 0-5.335938-4.324219-9.660157-9.660156-9.660157h-28.980469c-5.335937 0-9.660156 4.324219-9.660156 9.660157 0 5.332031 4.324219 9.660156 9.660156 9.660156zm299.46875 96.601562c0-5.335937-4.324218-9.660156-9.660156-9.660156h-28.980469c-5.335937 0-9.660156 4.324219-9.660156 9.660156 0 5.335938 4.324219 9.660156 9.660156 9.660156h28.980469c5.335938 0 9.660156-4.324218 9.660156-9.660156zm-67.621094 0c0-5.335937-4.328124-9.660156-9.660156-9.660156h-28.980468c-5.335938 0-9.660157 4.324219-9.660157 9.660156 0 5.335938 4.324219 9.660156 9.660157 9.660156h28.980468c5.332032 0 9.660156-4.324218 9.660156-9.660156zm-48.304687-38.640625c0-5.335937-4.324219-9.660156-9.660156-9.660156h-28.980469c-5.332031 0-9.660156 4.324219-9.660156 9.660156 0 5.335938 4.328125 9.660157 9.660156 9.660157h28.980469c5.335937 0 9.660156-4.324219 9.660156-9.660157zm-96.601563-9.660156c-5.335937 0-9.660156 4.324219-9.660156 9.660156 0 5.335938 4.324219 9.660157 9.660156 9.660157h19.320313c5.335937 0 9.660156-4.324219 9.660156-9.660157 0-5.335937-4.324219-9.660156-9.660156-9.660156zm77.28125 48.300781c0-5.335937-4.324218-9.660156-9.660156-9.660156h-67.621094c-5.335937 0-9.660156 4.324219-9.660156 9.660156 0 5.335938 4.324219 9.660156 9.660156 9.660156h67.621094c5.335938 0 9.660156-4.324218 9.660156-9.660156zm0 0" fill="url(#a)"/></svg>